<svg width="20" height="20" viewBox="0 0 20 20" fill="none" xmlns="http://www.w3.org/2000/svg">
                    <path d="M3.07692 14.32L1 14.8462L2.38462 10.6923V2.38462C2.38462 2.01739 2.5305 1.66521 2.79016 1.40554C3.04983 1.14588 3.402 1 3.76923 1H14.8462C15.2134 1 15.5656 1.14588 15.8252 1.40554C16.0848 1.66521 16.2308 2.01739 16.2308 2.38462V4.46154M14.1538 17.6154L19 19L18.3077 14.8462V9.30769C18.3077 8.94047 18.1618 8.58829 17.9021 8.32862C17.6425 8.06896 17.2903 7.92308 16.9231 7.92308H7.92308C7.55585 7.92308 7.20367 8.06896 6.944 8.32862C6.68434 8.58829 6.53846 8.94047 6.53846 9.30769V16.2308C6.53846 16.598 6.68434 16.9502 6.944 17.2098C7.20367 17.4694 7.55585 17.6154 7.92308 17.6154H14.1538Z" stroke="#ffffff" stroke-width="1.71429" stroke-linecap="round" stroke-linejoin="round"></path>
                  </svg>