<svg width="225" height="66" viewBox="0 0 225 66" fill="none" xmlns="http://www.w3.org/2000/svg">
<path d="M75.4399 26.5708V29H66.0039V26.5708H75.4399ZM66.8706 11.2266V29H63.8066V11.2266H66.8706ZM74.207 18.6484V21.041H66.0039V18.6484H74.207ZM75.3789 11.2266V13.668H66.0039V11.2266H75.3789ZM92.0415 11.2266V29H88.9775L81.0063 16.2681V29H77.9424V11.2266H81.0063L89.002 23.9829V11.2266H92.0415ZM102.637 11.2266V29H99.5977V11.2266H102.637ZM108.216 11.2266V13.668H94.0679V11.2266H108.216ZM122.193 26.5708V29H112.757V26.5708H122.193ZM113.624 11.2266V29H110.56V11.2266H113.624ZM120.96 18.6484V21.041H112.757V18.6484H120.96ZM122.132 11.2266V13.668H112.757V11.2266H122.132ZM124.695 11.2266H130.982C132.333 11.2266 133.484 11.43 134.437 11.8369C135.389 12.2438 136.117 12.846 136.622 13.6436C137.134 14.4329 137.391 15.4095 137.391 16.5732C137.391 17.4603 137.228 18.2415 136.902 18.917C136.577 19.5924 136.117 20.1621 135.523 20.626C134.929 21.0817 134.221 21.4357 133.399 21.688L132.471 22.1396H126.819L126.795 19.7104H131.031C131.763 19.7104 132.374 19.5802 132.862 19.3198C133.35 19.0594 133.716 18.7054 133.96 18.2578C134.213 17.8021 134.339 17.2894 134.339 16.7197C134.339 16.1012 134.217 15.5641 133.973 15.1084C133.737 14.6445 133.37 14.2905 132.874 14.0464C132.378 13.7941 131.747 13.668 130.982 13.668H127.759V29H124.695V11.2266ZM134.839 29L130.665 21.0166L133.875 21.0044L138.111 28.8413V29H134.839ZM149.793 24.4224C149.793 24.0562 149.736 23.7306 149.622 23.4458C149.516 23.161 149.325 22.9006 149.048 22.6646C148.772 22.4285 148.381 22.2007 147.876 21.981C147.38 21.7531 146.745 21.5212 145.972 21.2852C145.126 21.0247 144.345 20.7358 143.628 20.4185C142.92 20.0929 142.302 19.7186 141.773 19.2954C141.244 18.8641 140.833 18.3717 140.54 17.8184C140.247 17.2568 140.101 16.6099 140.101 15.8774C140.101 15.1532 140.251 14.494 140.552 13.8999C140.861 13.3058 141.297 12.7931 141.858 12.3618C142.428 11.9224 143.099 11.5846 143.873 11.3486C144.646 11.1045 145.5 10.9824 146.436 10.9824C147.754 10.9824 148.89 11.2266 149.842 11.7148C150.802 12.2031 151.539 12.8582 152.051 13.6802C152.572 14.5021 152.833 15.4095 152.833 16.4023H149.793C149.793 15.8164 149.667 15.2996 149.415 14.8521C149.17 14.3963 148.796 14.0382 148.292 13.7778C147.795 13.5174 147.164 13.3872 146.399 13.3872C145.675 13.3872 145.073 13.4971 144.593 13.7168C144.113 13.9365 143.755 14.2336 143.519 14.6079C143.283 14.9823 143.165 15.4054 143.165 15.8774C143.165 16.2111 143.242 16.5163 143.396 16.793C143.551 17.0615 143.787 17.3138 144.104 17.5498C144.422 17.7777 144.821 17.9933 145.301 18.1968C145.781 18.4002 146.347 18.5955 146.998 18.7827C147.982 19.0757 148.841 19.4012 149.573 19.7593C150.306 20.1092 150.916 20.508 151.404 20.9556C151.893 21.4032 152.259 21.9118 152.503 22.4814C152.747 23.043 152.869 23.6818 152.869 24.3979C152.869 25.1466 152.719 25.8221 152.417 26.4243C152.116 27.0184 151.685 27.527 151.124 27.9502C150.57 28.3652 149.903 28.6867 149.122 28.9146C148.348 29.1343 147.486 29.2441 146.534 29.2441C145.679 29.2441 144.837 29.1302 144.007 28.9023C143.185 28.6745 142.436 28.3286 141.761 27.8647C141.085 27.3927 140.548 26.8068 140.149 26.1069C139.751 25.3989 139.551 24.5729 139.551 23.6289H142.615C142.615 24.2067 142.713 24.6991 142.908 25.106C143.112 25.5129 143.392 25.8465 143.75 26.1069C144.109 26.3592 144.524 26.5464 144.996 26.6685C145.476 26.7905 145.988 26.8516 146.534 26.8516C147.25 26.8516 147.848 26.7498 148.328 26.5464C148.816 26.3429 149.183 26.0581 149.427 25.6919C149.671 25.3257 149.793 24.9025 149.793 24.4224ZM169.751 19.625V20.6016C169.751 21.9443 169.576 23.1488 169.227 24.2148C168.877 25.2809 168.376 26.1883 167.725 26.937C167.082 27.6857 166.309 28.2594 165.406 28.6582C164.502 29.0488 163.501 29.2441 162.403 29.2441C161.312 29.2441 160.315 29.0488 159.412 28.6582C158.517 28.2594 157.74 27.6857 157.081 26.937C156.421 26.1883 155.909 25.2809 155.542 24.2148C155.184 23.1488 155.005 21.9443 155.005 20.6016V19.625C155.005 18.2822 155.184 17.0819 155.542 16.0239C155.901 14.9578 156.405 14.0505 157.056 13.3018C157.715 12.5449 158.493 11.9712 159.388 11.5806C160.291 11.1818 161.288 10.9824 162.378 10.9824C163.477 10.9824 164.478 11.1818 165.381 11.5806C166.285 11.9712 167.062 12.5449 167.713 13.3018C168.364 14.0505 168.864 14.9578 169.214 16.0239C169.572 17.0819 169.751 18.2822 169.751 19.625ZM166.688 20.6016V19.6006C166.688 18.6077 166.59 17.7329 166.395 16.9761C166.207 16.2111 165.927 15.5723 165.552 15.0596C165.186 14.5387 164.734 14.1481 164.197 13.8877C163.66 13.6191 163.054 13.4849 162.378 13.4849C161.703 13.4849 161.101 13.6191 160.572 13.8877C160.043 14.1481 159.591 14.5387 159.217 15.0596C158.851 15.5723 158.57 16.2111 158.375 16.9761C158.179 17.7329 158.082 18.6077 158.082 19.6006V20.6016C158.082 21.5944 158.179 22.4733 158.375 23.2383C158.57 24.0033 158.855 24.6502 159.229 25.1792C159.611 25.7 160.067 26.0947 160.596 26.3633C161.125 26.6237 161.727 26.7539 162.403 26.7539C163.086 26.7539 163.693 26.6237 164.222 26.3633C164.751 26.0947 165.198 25.7 165.564 25.1792C165.931 24.6502 166.207 24.0033 166.395 23.2383C166.59 22.4733 166.688 21.5944 166.688 20.6016ZM175.879 11.2266V29H172.815V11.2266H175.879ZM183.13 19.0024V21.4316H175.098V19.0024H183.13ZM184.144 11.2266V13.668H175.098V11.2266H184.144ZM194.141 11.2266V29H191.102V11.2266H194.141ZM199.72 11.2266V13.668H185.572V11.2266H199.72Z" fill="white"/>
<path d="M71.9997 39.2038L67.1235 55H61.9451L69.2937 35.0007H72.5766L71.9997 39.2038ZM76.038 55L71.1481 39.2038L70.5162 35.0007H73.8403L81.2301 55H76.038ZM75.8457 47.5415V51.2639H65.585V47.5415H75.8457ZM94.6149 48.2282H99.4224C99.3583 49.6201 98.9829 50.8472 98.2961 51.9094C97.6093 52.9717 96.6569 53.8004 95.439 54.3956C94.2303 54.9817 92.8017 55.2747 91.1534 55.2747C89.8165 55.2747 88.6215 55.0504 87.5684 54.6017C86.5245 54.153 85.6362 53.5074 84.9036 52.6649C84.1802 51.8224 83.6262 50.8014 83.2416 49.6018C82.8662 48.4022 82.6784 47.0515 82.6784 45.5498V44.4646C82.6784 42.9628 82.8753 41.6122 83.2691 40.4126C83.672 39.2038 84.2397 38.1782 84.9723 37.3357C85.7141 36.4841 86.6023 35.834 87.6371 35.3853C88.6718 34.9366 89.8211 34.7122 91.0848 34.7122C92.8246 34.7122 94.2944 35.0236 95.494 35.6462C96.6935 36.2689 97.623 37.1251 98.2823 38.2148C98.9416 39.2954 99.3308 40.527 99.4499 41.9098H94.6423C94.624 41.1589 94.4958 40.5316 94.2577 40.028C94.0196 39.5152 93.6442 39.1306 93.1314 38.8742C92.6186 38.6178 91.9364 38.4896 91.0848 38.4896C90.4895 38.4896 89.9722 38.5994 89.5326 38.8192C89.0931 39.039 88.7268 39.387 88.4337 39.8631C88.1407 40.3393 87.9209 40.9574 87.7744 41.7175C87.6371 42.4684 87.5684 43.3749 87.5684 44.4372V45.5498C87.5684 46.612 87.6325 47.5186 87.7607 48.2695C87.8889 49.0203 88.0949 49.6339 88.3788 50.1101C88.6627 50.5862 89.029 50.9388 89.4777 51.1677C89.9355 51.3875 90.4941 51.4974 91.1534 51.4974C91.886 51.4974 92.5041 51.3829 93.0078 51.154C93.5114 50.9159 93.9006 50.5588 94.1753 50.0826C94.45 49.5972 94.5965 48.9791 94.6149 48.2282ZM111.021 39.2038L106.145 55H100.967L108.316 35.0007H111.598L111.021 39.2038ZM115.06 55L110.17 39.2038L109.538 35.0007H112.862L120.252 55H115.06ZM114.867 47.5415V51.2639H104.607V47.5415H114.867ZM129.063 55H124.626L124.653 51.2913H129.063C129.978 51.2913 130.752 51.0716 131.384 50.632C132.025 50.1925 132.51 49.5377 132.84 48.6678C133.179 47.7887 133.348 46.7081 133.348 45.4261V44.5608C133.348 43.5993 133.252 42.7568 133.06 42.0334C132.877 41.3008 132.602 40.6919 132.236 40.2065C131.869 39.712 131.411 39.3412 130.862 39.0939C130.322 38.8467 129.699 38.7231 128.994 38.7231H124.544V35.0007H128.994C130.349 35.0007 131.59 35.2342 132.716 35.7012C133.852 36.159 134.832 36.8184 135.656 37.6791C136.489 38.5308 137.13 39.5426 137.579 40.7148C138.037 41.8777 138.266 43.1689 138.266 44.5883V45.4261C138.266 46.8363 138.037 48.1275 137.579 49.2996C137.13 50.4718 136.494 51.4836 135.67 52.3353C134.845 53.1869 133.87 53.8462 132.744 54.3132C131.627 54.7711 130.4 55 129.063 55ZM127.387 35.0007V55H122.566V35.0007H127.387ZM155.386 51.2913V55H144.728V51.2913H155.386ZM146.444 35.0007V55H141.623V35.0007H146.444ZM154.013 42.94V46.525H144.728V42.94H154.013ZM155.428 35.0007V38.7231H144.728V35.0007H155.428ZM160.598 35.0007H164.527L168.991 48.915L173.455 35.0007H177.384L170.584 55H167.398L160.598 35.0007ZM158.208 35.0007H162.274L163.03 50.3298V55H158.208V35.0007ZM175.708 35.0007H179.787V55H174.952V50.3298L175.708 35.0007ZM186.963 35.0007L190.645 43.6817L194.34 35.0007H199.532L193.103 47.8162V55H188.2V47.8162L181.758 35.0007H186.963Z" fill="white"/>
<g filter="url(#filter0_d_141_158)">
<path d="M29.9795 0C30.7858 3.71599e-05 31.4757 0.242017 32.085 0.739258C33.4021 1.7474 40.659 6.89461 52.9121 8.09082H52.917C54.6908 8.32399 55.9677 9.72562 55.9678 11.4277C55.9678 46.7166 31.554 57.3512 31.2832 57.4648C31.0457 57.6396 30.5031 57.7832 29.9834 57.7832C29.3921 57.7832 28.8453 57.5454 28.6348 57.4424C28.3923 57.3406 4.0001 46.8477 4 11.4287C4 9.66805 5.35331 8.20282 7.07812 8.09082C20.4236 6.79161 27.7887 0.815076 27.8604 0.756836C28.4786 0.246224 29.1732 0 29.9795 0ZM29.8896 11.9463C27.2134 11.9464 25.0391 14.2334 25.0391 17.0391V19.376H24.7559C23.5558 19.376 22.5801 20.3579 22.5801 21.5654V23.1367H19.415C19.1284 23.1366 18.8995 22.8784 18.8994 22.5625V21.5977C19.5245 21.3549 19.9717 20.7333 19.9717 19.999C19.9716 19.0573 19.2348 18.2883 18.3262 18.2881C17.4174 18.2881 16.6797 19.0541 16.6797 19.999C16.6797 20.7332 17.1255 21.3548 17.752 21.5977V22.5625C17.752 23.5196 18.502 24.2939 19.4229 24.2939H22.5879V25.4785L17.5459 25.4766C17.3167 24.8202 16.7145 24.3438 16 24.3438C15.0913 24.3438 14.3535 25.1107 14.3535 26.0557C14.3537 27.0019 15.0914 27.7665 16 27.7666C16.7101 27.7666 17.3168 27.2933 17.5459 26.6338H22.5752V27.8184H19.4111C18.4902 27.8184 17.7402 28.5957 17.7402 29.5498V30.5146C17.1152 30.7574 16.668 31.379 16.668 32.1133C16.6681 33.055 17.4049 33.824 18.3135 33.8242C19.2222 33.8242 19.9598 33.0581 19.96 32.1133C19.96 31.3791 19.5141 30.7575 18.8877 30.5146V29.5498C18.8877 29.2338 19.1211 28.9756 19.4033 28.9756H22.5684V30.5469C22.5685 31.7543 23.5441 32.7363 24.7441 32.7363H27.0859V36.1055C27.0857 36.4213 26.8524 36.6787 26.5703 36.6787H25.6846C25.4554 36.0225 24.853 35.5461 24.1387 35.5459C23.2299 35.5459 22.4922 36.3128 22.4922 37.2578C22.4923 38.2042 23.2299 38.9688 24.1387 38.9688C24.8486 38.9686 25.4555 38.4953 25.6846 37.8359H26.5703C27.4911 37.8359 28.241 37.0594 28.2412 36.1055V32.7363H29.3086V38.1055C28.6838 38.3483 28.2365 38.9691 28.2363 39.7031C28.2363 40.6451 28.974 41.415 29.8828 41.415C30.7914 41.4148 31.5283 40.648 31.5283 39.7031C31.5282 38.9691 31.0824 38.3482 30.4561 38.1055L30.46 32.7334H31.5283V36.1025C31.5285 37.0596 32.2784 37.833 33.1992 37.833H34.085C34.314 38.4894 34.9163 38.9658 35.6309 38.9658C36.5396 38.9658 37.2773 38.1998 37.2773 37.2549C37.2773 36.3129 36.5397 35.543 35.6309 35.543C34.921 35.543 34.3141 36.0165 34.085 36.6758H33.1992C32.9126 36.6758 32.6828 36.4184 32.6826 36.1025V32.7334H35.0254C36.2254 32.7334 37.2011 31.7514 37.2012 30.5439V28.9727H40.3662C40.6529 28.9727 40.8818 29.2309 40.8818 29.5469V30.5117C40.2569 30.7545 39.8096 31.3761 39.8096 32.1104C39.8097 33.052 40.5466 33.8211 41.4551 33.8213C42.3638 33.8213 43.1014 33.0552 43.1016 32.1104C43.1016 31.3762 42.6558 30.7545 42.0293 30.5117V29.5469C42.0293 28.5897 41.2793 27.8154 40.3584 27.8154H37.1934V26.6309H42.2236C42.4527 27.2873 43.055 27.7637 43.7695 27.7637C44.6781 27.7635 45.4149 26.9975 45.415 26.0527C45.4257 25.1125 44.6889 24.343 43.7803 24.3428C43.0702 24.3428 42.4625 24.8161 42.2334 25.4756L37.2031 25.4766V24.292H40.3672C41.288 24.292 42.0379 23.5155 42.0381 22.5615V21.5967C42.6631 21.354 43.1103 20.7323 43.1104 19.998C43.1104 19.0562 42.3735 18.2863 41.4648 18.2861C40.556 18.2861 39.8184 19.053 39.8184 19.998C39.8184 20.7322 40.2642 21.3539 40.8906 21.5967V22.5615C40.8904 22.8773 40.6571 23.1348 40.375 23.1348H37.21V21.5645C37.21 20.3571 36.235 19.3753 35.0352 19.375H34.751V17.0381C34.751 15.6825 34.2505 14.4072 33.3418 13.4453C32.4148 12.482 31.1914 11.9463 29.8896 11.9463ZM33.1064 21V22.8613H28.5508V24.9697H32.3887V26.7627H28.5508V29.1455H33.0859V31H26.1064V21H33.1064ZM29.8896 14.8184C30.4418 14.8184 30.9577 15.0439 31.3506 15.459C31.7466 15.8819 31.9639 16.4412 31.9639 17.0381V19.375H27.8154V17.0381C27.8154 15.8153 28.7473 14.8185 29.8896 14.8184Z" fill="white"/>
</g>
<defs>
<filter id="filter0_d_141_158" x="0" y="0" width="59.9678" height="65.7832" filterUnits="userSpaceOnUse" color-interpolation-filters="sRGB">
<feFlood flood-opacity="0" result="BackgroundImageFix"/>
<feColorMatrix in="SourceAlpha" type="matrix" values="0 0 0 0 0 0 0 0 0 0 0 0 0 0 0 0 0 0 127 0" result="hardAlpha"/>
<feOffset dy="4"/>
<feGaussianBlur stdDeviation="2"/>
<feComposite in2="hardAlpha" operator="out"/>
<feColorMatrix type="matrix" values="0 0 0 0 0 0 0 0 0 0 0 0 0 0 0 0 0 0 0.25 0"/>
<feBlend mode="normal" in2="BackgroundImageFix" result="effect1_dropShadow_141_158"/>
<feBlend mode="normal" in="SourceGraphic" in2="effect1_dropShadow_141_158" result="shape"/>
</filter>
</defs>
</svg>
